<?xml version="1.0" encoding="UTF-8" standalone="no"?>
<!DOCTYPE svg PUBLIC "-//W3C//DTD SVG 1.1//EN"
 "http://www.w3.org/Graphics/SVG/1.1/DTD/svg11.dtd">
<!-- Generated by graphviz version 2.43.0 (0)
 -->
<!-- Title: %3 Pages: 1 -->
<svg width="1459pt" height="238pt"
 viewBox="0.00 0.00 1459.00 237.74" xmlns="http://www.w3.org/2000/svg" xmlns:xlink="http://www.w3.org/1999/xlink">
<g id="graph0" class="graph" transform="scale(1 1) rotate(0) translate(36 201.74)">
<title>%3</title>
<polygon fill="dimgray" stroke="transparent" points="-36,36 -36,-201.74 1423,-201.74 1423,36 -36,36"/>
<text text-anchor="middle" x="693.5" y="-150.54" font-family="Helvetica,sans-Serif" font-size="14.00">Sweep&#39;s Plan &amp; Progress</text>
<!-- start -->
<g id="node1" class="node">
<title>start</title>
</g>
<!-- 6279f5c0&#45;5e60&#45;4524&#45;8a03&#45;7ad0c6c118ab -->
<g id="node3" class="node">
<title>6279f5c0&#45;5e60&#45;4524&#45;8a03&#45;7ad0c6c118ab</title>
<ellipse fill="#0ee832" stroke="black" cx="267.5" cy="-99.87" rx="214.92" ry="26.74"/>
<text text-anchor="middle" x="267.5" y="-103.67" font-family="Helvetica,sans-Serif" font-size="14.00">✓ Create</text>
<text text-anchor="middle" x="267.5" y="-88.67" font-family="Helvetica,sans-Serif" font-size="14.00">backend/src/main/resources/db/migration</text>
</g>
<!-- start&#45;&gt;6279f5c0&#45;5e60&#45;4524&#45;8a03&#45;7ad0c6c118ab -->
<g id="edge6" class="edge">
<title>start&#45;&gt;6279f5c0&#45;5e60&#45;4524&#45;8a03&#45;7ad0c6c118ab</title>
<path fill="none" stroke="black" d="M1.27,-99.87C4.81,-99.87 20.38,-99.87 42.36,-99.87"/>
<polygon fill="black" stroke="black" points="42.51,-103.37 52.51,-99.87 42.51,-96.37 42.51,-103.37"/>
<text text-anchor="middle" x="26.77" y="-106.67" font-family="Helvetica,sans-Serif" font-size="14.00">Start</text>
</g>
<!-- end -->
<g id="node2" class="node">
<title>end</title>
</g>
<!-- 92743c8f&#45;9039&#45;4d49&#45;b544&#45;8a91eac40bab -->
<g id="node4" class="node">
<title>92743c8f&#45;9039&#45;4d49&#45;b544&#45;8a91eac40bab</title>
<ellipse fill="white" stroke="black" cx="795.5" cy="-99.87" rx="258.19" ry="26.74"/>
<text text-anchor="middle" x="795.5" y="-103.67" font-family="Helvetica,sans-Serif" font-size="14.00">▶ Modify</text>
<text text-anchor="middle" x="795.5" y="-88.67" font-family="Helvetica,sans-Serif" font-size="14.00">backend/src/main/resources/application.properties</text>
</g>
<!-- 6279f5c0&#45;5e60&#45;4524&#45;8a03&#45;7ad0c6c118ab&#45;&gt;92743c8f&#45;9039&#45;4d49&#45;b544&#45;8a91eac40bab -->
<g id="edge2" class="edge">
<title>6279f5c0&#45;5e60&#45;4524&#45;8a03&#45;7ad0c6c118ab&#45;&gt;92743c8f&#45;9039&#45;4d49&#45;b544&#45;8a91eac40bab</title>
<path fill="none" stroke="black" d="M482.52,-99.87C497.33,-99.87 512.15,-99.87 526.97,-99.87"/>
<polygon fill="black" stroke="black" points="527.23,-103.37 537.23,-99.87 527.23,-96.37 527.23,-103.37"/>
</g>
<!-- 19857d48&#45;0421&#45;4f91&#45;80fe&#45;08e025c1c3d0 -->
<g id="node6" class="node">
<title>19857d48&#45;0421&#45;4f91&#45;80fe&#45;08e025c1c3d0</title>
<polygon fill="yellow" stroke="black" points="499,-36 0,-36 0,0 499,0 499,-36"/>
<text text-anchor="middle" x="249.5" y="-14.3" font-family="Helvetica,sans-Serif" font-size="14.00">⋯ Run GitHub Actions for `backend/src/main/resources/db/migration`</text>
</g>
<!-- 6279f5c0&#45;5e60&#45;4524&#45;8a03&#45;7ad0c6c118ab&#45;&gt;19857d48&#45;0421&#45;4f91&#45;80fe&#45;08e025c1c3d0 -->
<g id="edge1" class="edge">
<title>6279f5c0&#45;5e60&#45;4524&#45;8a03&#45;7ad0c6c118ab&#45;&gt;19857d48&#45;0421&#45;4f91&#45;80fe&#45;08e025c1c3d0</title>
<path fill="none" stroke="black" stroke-dasharray="5,2" d="M261.61,-72.72C259.68,-64.18 257.54,-54.68 255.6,-46.08"/>
<polygon fill="black" stroke="black" points="258.98,-45.13 253.36,-36.15 252.15,-46.67 258.98,-45.13"/>
</g>
<!-- 7ebb8c23&#45;152d&#45;4a5a&#45;aadf&#45;cb899e0a9484 -->
<g id="node5" class="node">
<title>7ebb8c23&#45;152d&#45;4a5a&#45;aadf&#45;cb899e0a9484</title>
<ellipse fill="white" stroke="black" cx="1201.5" cy="-99.87" rx="73.58" ry="26.74"/>
<text text-anchor="middle" x="1201.5" y="-103.67" font-family="Helvetica,sans-Serif" font-size="14.00">▶ Modify</text>
<text text-anchor="middle" x="1201.5" y="-88.67" font-family="Helvetica,sans-Serif" font-size="14.00">README.md</text>
</g>
<!-- 92743c8f&#45;9039&#45;4d49&#45;b544&#45;8a91eac40bab&#45;&gt;7ebb8c23&#45;152d&#45;4a5a&#45;aadf&#45;cb899e0a9484 -->
<g id="edge4" class="edge">
<title>92743c8f&#45;9039&#45;4d49&#45;b544&#45;8a91eac40bab&#45;&gt;7ebb8c23&#45;152d&#45;4a5a&#45;aadf&#45;cb899e0a9484</title>
<path fill="none" stroke="black" d="M1053.61,-99.87C1074.97,-99.87 1096.33,-99.87 1117.7,-99.87"/>
<polygon fill="black" stroke="black" points="1117.84,-103.37 1127.84,-99.87 1117.84,-96.37 1117.84,-103.37"/>
</g>
<!-- 638cc6d1&#45;63d9&#45;4786&#45;bda4&#45;c53680a8eda4 -->
<g id="node7" class="node">
<title>638cc6d1&#45;63d9&#45;4786&#45;bda4&#45;c53680a8eda4</title>
<polygon fill="white" stroke="black" points="1074,-36 517,-36 517,0 1074,0 1074,-36"/>
<text text-anchor="middle" x="795.5" y="-14.3" font-family="Helvetica,sans-Serif" font-size="14.00">▶ Run GitHub Actions for `backend/src/main/resources/application.properties`</text>
</g>
<!-- 92743c8f&#45;9039&#45;4d49&#45;b544&#45;8a91eac40bab&#45;&gt;638cc6d1&#45;63d9&#45;4786&#45;bda4&#45;c53680a8eda4 -->
<g id="edge3" class="edge">
<title>92743c8f&#45;9039&#45;4d49&#45;b544&#45;8a91eac40bab&#45;&gt;638cc6d1&#45;63d9&#45;4786&#45;bda4&#45;c53680a8eda4</title>
<path fill="none" stroke="black" stroke-dasharray="5,2" d="M795.5,-72.72C795.5,-64.27 795.5,-54.89 795.5,-46.36"/>
<polygon fill="black" stroke="black" points="799,-46.15 795.5,-36.15 792,-46.15 799,-46.15"/>
</g>
<!-- 7ebb8c23&#45;152d&#45;4a5a&#45;aadf&#45;cb899e0a9484&#45;&gt;end -->
<g id="edge7" class="edge">
<title>7ebb8c23&#45;152d&#45;4a5a&#45;aadf&#45;cb899e0a9484&#45;&gt;end</title>
<path fill="none" stroke="black" d="M1275.22,-99.87C1293.84,-99.87 1311.64,-99.87 1322.56,-99.87"/>
<polygon fill="black" stroke="black" points="1322.78,-103.37 1332.78,-99.87 1322.78,-96.37 1322.78,-103.37"/>
<text text-anchor="middle" x="1304.02" y="-106.67" font-family="Helvetica,sans-Serif" font-size="14.00">Finish</text>
</g>
<!-- c9af5c54&#45;a6e3&#45;436e&#45;9d00&#45;5ac0c4b330eb -->
<g id="node8" class="node">
<title>c9af5c54&#45;a6e3&#45;436e&#45;9d00&#45;5ac0c4b330eb</title>
<polygon fill="white" stroke="black" points="1387,-36 1092,-36 1092,0 1387,0 1387,-36"/>
<text text-anchor="middle" x="1239.5" y="-14.3" font-family="Helvetica,sans-Serif" font-size="14.00">▶ Run GitHub Actions for `README.md`</text>
</g>
<!-- 7ebb8c23&#45;152d&#45;4a5a&#45;aadf&#45;cb899e0a9484&#45;&gt;c9af5c54&#45;a6e3&#45;436e&#45;9d00&#45;5ac0c4b330eb -->
<g id="edge5" class="edge">
<title>7ebb8c23&#45;152d&#45;4a5a&#45;aadf&#45;cb899e0a9484&#45;&gt;c9af5c54&#45;a6e3&#45;436e&#45;9d00&#45;5ac0c4b330eb</title>
<path fill="none" stroke="black" stroke-dasharray="5,2" d="M1213.73,-73.16C1217.94,-64.32 1222.65,-54.41 1226.89,-45.5"/>
<polygon fill="black" stroke="black" points="1230.12,-46.87 1231.25,-36.34 1223.79,-43.86 1230.12,-46.87"/>
</g>
</g>
</svg>
