<?xml version="1.0" encoding="UTF-8" standalone="no"?>
<!DOCTYPE svg PUBLIC "-//W3C//DTD SVG 1.1//EN"
 "http://www.w3.org/Graphics/SVG/1.1/DTD/svg11.dtd">
<!-- Generated by graphviz version 2.43.0 (0)
 -->
<!-- Title: %3 Pages: 1 -->
<svg width="1297pt" height="238pt"
 viewBox="0.00 0.00 1296.50 237.74" xmlns="http://www.w3.org/2000/svg" xmlns:xlink="http://www.w3.org/1999/xlink">
<g id="graph0" class="graph" transform="scale(1 1) rotate(0) translate(36 201.74)">
<title>%3</title>
<polygon fill="dimgray" stroke="transparent" points="-36,36 -36,-201.74 1260.5,-201.74 1260.5,36 -36,36"/>
<text text-anchor="middle" x="612.25" y="-150.54" font-family="Helvetica,sans-Serif" font-size="14.00">Sweep&#39;s Plan &amp; Progress</text>
<!-- start -->
<g id="node1" class="node">
<title>start</title>
</g>
<!-- 641294a0&#45;a511&#45;49f4&#45;ad3c&#45;4831adb20f30 -->
<g id="node3" class="node">
<title>641294a0&#45;a511&#45;49f4&#45;ad3c&#45;4831adb20f30</title>
<ellipse fill="#0ee832" stroke="black" cx="231" cy="-99.87" rx="123.99" ry="26.74"/>
<text text-anchor="middle" x="231" y="-103.67" font-family="Helvetica,sans-Serif" font-size="14.00">✓ Modify</text>
<text text-anchor="middle" x="231" y="-88.67" font-family="Helvetica,sans-Serif" font-size="14.00">frontend/src/i18n/en.ts</text>
</g>
<!-- start&#45;&gt;641294a0&#45;a511&#45;49f4&#45;ad3c&#45;4831adb20f30 -->
<g id="edge6" class="edge">
<title>start&#45;&gt;641294a0&#45;a511&#45;49f4&#45;ad3c&#45;4831adb20f30</title>
<path fill="none" stroke="black" d="M55.5,-99.87C58.56,-99.87 75.19,-99.87 97.08,-99.87"/>
<polygon fill="black" stroke="black" points="97.12,-103.37 107.12,-99.87 97.12,-96.37 97.12,-103.37"/>
<text text-anchor="middle" x="81.38" y="-106.67" font-family="Helvetica,sans-Serif" font-size="14.00">Start</text>
</g>
<!-- end -->
<g id="node2" class="node">
<title>end</title>
</g>
<!-- 882efbcc&#45;247c&#45;4c54&#45;b567&#45;53d4a962ed97 -->
<g id="node4" class="node">
<title>882efbcc&#45;247c&#45;4c54&#45;b567&#45;53d4a962ed97</title>
<ellipse fill="white" stroke="black" cx="590" cy="-99.87" rx="152.06" ry="26.74"/>
<text text-anchor="middle" x="590" y="-103.67" font-family="Helvetica,sans-Serif" font-size="14.00">▶ Modify</text>
<text text-anchor="middle" x="590" y="-88.67" font-family="Helvetica,sans-Serif" font-size="14.00">frontend/src/layout/Login.tsx</text>
</g>
<!-- 641294a0&#45;a511&#45;49f4&#45;ad3c&#45;4831adb20f30&#45;&gt;882efbcc&#45;247c&#45;4c54&#45;b567&#45;53d4a962ed97 -->
<g id="edge2" class="edge">
<title>641294a0&#45;a511&#45;49f4&#45;ad3c&#45;4831adb20f30&#45;&gt;882efbcc&#45;247c&#45;4c54&#45;b567&#45;53d4a962ed97</title>
<path fill="none" stroke="black" d="M354.76,-99.87C379.12,-99.87 403.48,-99.87 427.85,-99.87"/>
<polygon fill="black" stroke="black" points="427.92,-103.37 437.92,-99.87 427.92,-96.37 427.92,-103.37"/>
</g>
<!-- 61312236&#45;af34&#45;4cf8&#45;8a04&#45;a54d97f8fbec -->
<g id="node6" class="node">
<title>61312236&#45;af34&#45;4cf8&#45;8a04&#45;a54d97f8fbec</title>
<polygon fill="#0ee832" stroke="black" points="368,-36 0,-36 0,0 368,0 368,-36"/>
<text text-anchor="middle" x="184" y="-14.3" font-family="Helvetica,sans-Serif" font-size="14.00">✓ Run GitHub Actions for `frontend/src/i18n/en.ts`</text>
</g>
<!-- 641294a0&#45;a511&#45;49f4&#45;ad3c&#45;4831adb20f30&#45;&gt;61312236&#45;af34&#45;4cf8&#45;8a04&#45;a54d97f8fbec -->
<g id="edge1" class="edge">
<title>641294a0&#45;a511&#45;49f4&#45;ad3c&#45;4831adb20f30&#45;&gt;61312236&#45;af34&#45;4cf8&#45;8a04&#45;a54d97f8fbec</title>
<path fill="none" stroke="black" stroke-dasharray="5,2" d="M215.87,-73.16C210.61,-64.22 204.71,-54.2 199.43,-45.22"/>
<polygon fill="black" stroke="black" points="202.29,-43.18 194.2,-36.34 196.26,-46.73 202.29,-43.18"/>
</g>
<!-- a3b2c525&#45;ee73&#45;4dec&#45;a85b&#45;57602d5eeb08 -->
<g id="node5" class="node">
<title>a3b2c525&#45;ee73&#45;4dec&#45;a85b&#45;57602d5eeb08</title>
<ellipse fill="white" stroke="black" cx="976" cy="-99.87" rx="156.04" ry="26.74"/>
<text text-anchor="middle" x="976" y="-103.67" font-family="Helvetica,sans-Serif" font-size="14.00">▶ Modify</text>
<text text-anchor="middle" x="976" y="-88.67" font-family="Helvetica,sans-Serif" font-size="14.00">frontend/src/layout/themes.ts</text>
</g>
<!-- 882efbcc&#45;247c&#45;4c54&#45;b567&#45;53d4a962ed97&#45;&gt;a3b2c525&#45;ee73&#45;4dec&#45;a85b&#45;57602d5eeb08 -->
<g id="edge4" class="edge">
<title>882efbcc&#45;247c&#45;4c54&#45;b567&#45;53d4a962ed97&#45;&gt;a3b2c525&#45;ee73&#45;4dec&#45;a85b&#45;57602d5eeb08</title>
<path fill="none" stroke="black" d="M742.29,-99.87C764.59,-99.87 786.89,-99.87 809.19,-99.87"/>
<polygon fill="black" stroke="black" points="809.43,-103.37 819.43,-99.87 809.43,-96.37 809.43,-103.37"/>
</g>
<!-- 050fe504&#45;d1c5&#45;4308&#45;9e63&#45;4189a22a02cd -->
<g id="node7" class="node">
<title>050fe504&#45;d1c5&#45;4308&#45;9e63&#45;4189a22a02cd</title>
<polygon fill="white" stroke="black" points="793.5,-36 386.5,-36 386.5,0 793.5,0 793.5,-36"/>
<text text-anchor="middle" x="590" y="-14.3" font-family="Helvetica,sans-Serif" font-size="14.00">▶ Run GitHub Actions for `frontend/src/layout/Login.tsx`</text>
</g>
<!-- 882efbcc&#45;247c&#45;4c54&#45;b567&#45;53d4a962ed97&#45;&gt;050fe504&#45;d1c5&#45;4308&#45;9e63&#45;4189a22a02cd -->
<g id="edge3" class="edge">
<title>882efbcc&#45;247c&#45;4c54&#45;b567&#45;53d4a962ed97&#45;&gt;050fe504&#45;d1c5&#45;4308&#45;9e63&#45;4189a22a02cd</title>
<path fill="none" stroke="black" stroke-dasharray="5,2" d="M590,-72.72C590,-64.27 590,-54.89 590,-46.36"/>
<polygon fill="black" stroke="black" points="593.5,-46.15 590,-36.15 586.5,-46.15 593.5,-46.15"/>
</g>
<!-- a3b2c525&#45;ee73&#45;4dec&#45;a85b&#45;57602d5eeb08&#45;&gt;end -->
<g id="edge7" class="edge">
<title>a3b2c525&#45;ee73&#45;4dec&#45;a85b&#45;57602d5eeb08&#45;&gt;end</title>
<path fill="none" stroke="black" d="M1132.37,-99.87C1152.09,-99.87 1168.95,-99.87 1179.25,-99.87"/>
<polygon fill="black" stroke="black" points="1179.36,-103.37 1189.36,-99.87 1179.36,-96.37 1179.36,-103.37"/>
<text text-anchor="middle" x="1160.89" y="-106.67" font-family="Helvetica,sans-Serif" font-size="14.00">Finish</text>
</g>
<!-- 135fcbea&#45;6dd0&#45;4cd5&#45;8944&#45;f769da9acdd4 -->
<g id="node8" class="node">
<title>135fcbea&#45;6dd0&#45;4cd5&#45;8944&#45;f769da9acdd4</title>
<polygon fill="white" stroke="black" points="1224.5,-36 811.5,-36 811.5,0 1224.5,0 1224.5,-36"/>
<text text-anchor="middle" x="1018" y="-14.3" font-family="Helvetica,sans-Serif" font-size="14.00">▶ Run GitHub Actions for `frontend/src/layout/themes.ts`</text>
</g>
<!-- a3b2c525&#45;ee73&#45;4dec&#45;a85b&#45;57602d5eeb08&#45;&gt;135fcbea&#45;6dd0&#45;4cd5&#45;8944&#45;f769da9acdd4 -->
<g id="edge5" class="edge">
<title>a3b2c525&#45;ee73&#45;4dec&#45;a85b&#45;57602d5eeb08&#45;&gt;135fcbea&#45;6dd0&#45;4cd5&#45;8944&#45;f769da9acdd4</title>
<path fill="none" stroke="black" stroke-dasharray="5,2" d="M989.75,-72.72C994.39,-63.9 999.57,-54.05 1004.21,-45.23"/>
<polygon fill="black" stroke="black" points="1007.43,-46.63 1008.98,-36.15 1001.23,-43.37 1007.43,-46.63"/>
</g>
</g>
</svg>
