<?xml version="1.0" encoding="UTF-8" standalone="no"?>
<!DOCTYPE svg PUBLIC "-//W3C//DTD SVG 1.1//EN"
 "http://www.w3.org/Graphics/SVG/1.1/DTD/svg11.dtd">
<!-- Generated by graphviz version 2.43.0 (0)
 -->
<!-- Title: %3 Pages: 1 -->
<svg width="1604pt" height="238pt"
 viewBox="0.00 0.00 1604.00 237.74" xmlns="http://www.w3.org/2000/svg" xmlns:xlink="http://www.w3.org/1999/xlink">
<g id="graph0" class="graph" transform="scale(1 1) rotate(0) translate(36 201.74)">
<title>%3</title>
<polygon fill="dimgray" stroke="transparent" points="-36,36 -36,-201.74 1568,-201.74 1568,36 -36,36"/>
<text text-anchor="middle" x="766" y="-150.54" font-family="Helvetica,sans-Serif" font-size="14.00">Sweep&#39;s Plan &amp; Progress</text>
<!-- start -->
<g id="node1" class="node">
<title>start</title>
</g>
<!-- 81ba3961&#45;8ecb&#45;4d9a&#45;bcd4&#45;987ad409e4d5 -->
<g id="node3" class="node">
<title>81ba3961&#45;8ecb&#45;4d9a&#45;bcd4&#45;987ad409e4d5</title>
<ellipse fill="#ee0000" stroke="black" cx="364.5" cy="-99.87" rx="311.67" ry="26.74"/>
<text text-anchor="middle" x="364.5" y="-103.67" font-family="Helvetica,sans-Serif" font-size="14.00">✗ Create</text>
<text text-anchor="middle" x="364.5" y="-88.67" font-family="Helvetica,sans-Serif" font-size="14.00">backend/src/main/resources/db/migration/V1__Initial_data.sql</text>
</g>
<!-- start&#45;&gt;81ba3961&#45;8ecb&#45;4d9a&#45;bcd4&#45;987ad409e4d5 -->
<g id="edge4" class="edge">
<title>start&#45;&gt;81ba3961&#45;8ecb&#45;4d9a&#45;bcd4&#45;987ad409e4d5</title>
<path fill="none" stroke="black" d="M1.09,-99.87C4.22,-99.87 19.58,-99.87 42.35,-99.87"/>
<polygon fill="black" stroke="black" points="42.55,-103.37 52.55,-99.87 42.55,-96.37 42.55,-103.37"/>
<text text-anchor="middle" x="26.83" y="-106.67" font-family="Helvetica,sans-Serif" font-size="14.00">Start</text>
</g>
<!-- end -->
<g id="node2" class="node">
<title>end</title>
</g>
<!-- 452b8c4d&#45;e6ee&#45;4508&#45;b1b6&#45;1457eb61096d -->
<g id="node4" class="node">
<title>452b8c4d&#45;e6ee&#45;4508&#45;b1b6&#45;1457eb61096d</title>
<ellipse fill="white" stroke="black" cx="1092.5" cy="-99.87" rx="381.26" ry="26.74"/>
<text text-anchor="middle" x="1092.5" y="-103.67" font-family="Helvetica,sans-Serif" font-size="14.00">▶ Modify</text>
<text text-anchor="middle" x="1092.5" y="-88.67" font-family="Helvetica,sans-Serif" font-size="14.00">backend/src/main/java/demo/reactAdmin/crud/services/DataInitService.java</text>
</g>
<!-- 81ba3961&#45;8ecb&#45;4d9a&#45;bcd4&#45;987ad409e4d5&#45;&gt;452b8c4d&#45;e6ee&#45;4508&#45;b1b6&#45;1457eb61096d -->
<g id="edge2" class="edge">
<title>81ba3961&#45;8ecb&#45;4d9a&#45;bcd4&#45;987ad409e4d5&#45;&gt;452b8c4d&#45;e6ee&#45;4508&#45;b1b6&#45;1457eb61096d</title>
<path fill="none" stroke="black" d="M676.6,-99.87C684.69,-99.87 692.78,-99.87 700.88,-99.87"/>
<polygon fill="black" stroke="black" points="701.12,-103.37 711.12,-99.87 701.12,-96.37 701.12,-103.37"/>
</g>
<!-- 71574a22&#45;ab00&#45;4c72&#45;af4f&#45;f501c559e854 -->
<g id="node5" class="node">
<title>71574a22&#45;ab00&#45;4c72&#45;af4f&#45;f501c559e854</title>
<polygon fill="#ee0000" stroke="black" points="681.5,-36 47.5,-36 47.5,0 681.5,0 681.5,-36"/>
<text text-anchor="middle" x="364.5" y="-14.3" font-family="Helvetica,sans-Serif" font-size="14.00">✗ Run GitHub Actions for `backend/src/main/resources/db/migration/V1__Initial_data.sql`</text>
</g>
<!-- 81ba3961&#45;8ecb&#45;4d9a&#45;bcd4&#45;987ad409e4d5&#45;&gt;71574a22&#45;ab00&#45;4c72&#45;af4f&#45;f501c559e854 -->
<g id="edge1" class="edge">
<title>81ba3961&#45;8ecb&#45;4d9a&#45;bcd4&#45;987ad409e4d5&#45;&gt;71574a22&#45;ab00&#45;4c72&#45;af4f&#45;f501c559e854</title>
<path fill="none" stroke="black" stroke-dasharray="5,2" d="M364.5,-72.72C364.5,-64.27 364.5,-54.89 364.5,-46.36"/>
<polygon fill="black" stroke="black" points="368,-46.15 364.5,-36.15 361,-46.15 368,-46.15"/>
</g>
<!-- 452b8c4d&#45;e6ee&#45;4508&#45;b1b6&#45;1457eb61096d&#45;&gt;end -->
<g id="edge5" class="edge">
<title>452b8c4d&#45;e6ee&#45;4508&#45;b1b6&#45;1457eb61096d&#45;&gt;end</title>
<path fill="none" stroke="black" d="M1473.66,-99.87C1494.29,-99.87 1510.65,-99.87 1520.63,-99.87"/>
<polygon fill="black" stroke="black" points="1520.91,-103.37 1530.91,-99.87 1520.91,-96.37 1520.91,-103.37"/>
<text text-anchor="middle" x="1502.32" y="-106.67" font-family="Helvetica,sans-Serif" font-size="14.00">Finish</text>
</g>
<!-- 3472262b&#45;c5a4&#45;4674&#45;b2d0&#45;3712648fadef -->
<g id="node6" class="node">
<title>3472262b&#45;c5a4&#45;4674&#45;b2d0&#45;3712648fadef</title>
<polygon fill="white" stroke="black" points="1458,-36 727,-36 727,0 1458,0 1458,-36"/>
<text text-anchor="middle" x="1092.5" y="-14.3" font-family="Helvetica,sans-Serif" font-size="14.00">▶ Run GitHub Actions for `backend/src/main/java/demo/reactAdmin/crud/services/DataInitService.java`</text>
</g>
<!-- 452b8c4d&#45;e6ee&#45;4508&#45;b1b6&#45;1457eb61096d&#45;&gt;3472262b&#45;c5a4&#45;4674&#45;b2d0&#45;3712648fadef -->
<g id="edge3" class="edge">
<title>452b8c4d&#45;e6ee&#45;4508&#45;b1b6&#45;1457eb61096d&#45;&gt;3472262b&#45;c5a4&#45;4674&#45;b2d0&#45;3712648fadef</title>
<path fill="none" stroke="black" stroke-dasharray="5,2" d="M1092.5,-72.72C1092.5,-64.27 1092.5,-54.89 1092.5,-46.36"/>
<polygon fill="black" stroke="black" points="1096,-46.15 1092.5,-36.15 1089,-46.15 1096,-46.15"/>
</g>
</g>
</svg>
