<?xml version="1.0" encoding="UTF-8" standalone="no"?>
<!DOCTYPE svg PUBLIC "-//W3C//DTD SVG 1.1//EN"
 "http://www.w3.org/Graphics/SVG/1.1/DTD/svg11.dtd">
<!-- Generated by graphviz version 2.43.0 (0)
 -->
<!-- Title: %3 Pages: 1 -->
<svg width="1295pt" height="238pt"
 viewBox="0.00 0.00 1294.50 237.74" xmlns="http://www.w3.org/2000/svg" xmlns:xlink="http://www.w3.org/1999/xlink">
<g id="graph0" class="graph" transform="scale(1 1) rotate(0) translate(36 201.74)">
<title>%3</title>
<polygon fill="dimgray" stroke="transparent" points="-36,36 -36,-201.74 1258.5,-201.74 1258.5,36 -36,36"/>
<text text-anchor="middle" x="611.25" y="-150.54" font-family="Helvetica,sans-Serif" font-size="14.00">Sweep&#39;s Plan &amp; Progress</text>
<!-- start -->
<g id="node1" class="node">
<title>start</title>
</g>
<!-- 641294a0&#45;a511&#45;49f4&#45;ad3c&#45;4831adb20f30 -->
<g id="node3" class="node">
<title>641294a0&#45;a511&#45;49f4&#45;ad3c&#45;4831adb20f30</title>
<ellipse fill="yellow" stroke="black" cx="230" cy="-99.87" rx="123.99" ry="26.74"/>
<text text-anchor="middle" x="230" y="-103.67" font-family="Helvetica,sans-Serif" font-size="14.00">⋯ Modify</text>
<text text-anchor="middle" x="230" y="-88.67" font-family="Helvetica,sans-Serif" font-size="14.00">frontend/src/i18n/en.ts</text>
</g>
<!-- start&#45;&gt;641294a0&#45;a511&#45;49f4&#45;ad3c&#45;4831adb20f30 -->
<g id="edge6" class="edge">
<title>start&#45;&gt;641294a0&#45;a511&#45;49f4&#45;ad3c&#45;4831adb20f30</title>
<path fill="none" stroke="black" d="M54.5,-99.87C57.56,-99.87 74.19,-99.87 96.08,-99.87"/>
<polygon fill="black" stroke="black" points="96.12,-103.37 106.12,-99.87 96.12,-96.37 96.12,-103.37"/>
<text text-anchor="middle" x="80.38" y="-106.67" font-family="Helvetica,sans-Serif" font-size="14.00">Start</text>
</g>
<!-- end -->
<g id="node2" class="node">
<title>end</title>
</g>
<!-- 882efbcc&#45;247c&#45;4c54&#45;b567&#45;53d4a962ed97 -->
<g id="node4" class="node">
<title>882efbcc&#45;247c&#45;4c54&#45;b567&#45;53d4a962ed97</title>
<ellipse fill="white" stroke="black" cx="588" cy="-99.87" rx="152.06" ry="26.74"/>
<text text-anchor="middle" x="588" y="-103.67" font-family="Helvetica,sans-Serif" font-size="14.00">▶ Modify</text>
<text text-anchor="middle" x="588" y="-88.67" font-family="Helvetica,sans-Serif" font-size="14.00">frontend/src/layout/Login.tsx</text>
</g>
<!-- 641294a0&#45;a511&#45;49f4&#45;ad3c&#45;4831adb20f30&#45;&gt;882efbcc&#45;247c&#45;4c54&#45;b567&#45;53d4a962ed97 -->
<g id="edge2" class="edge">
<title>641294a0&#45;a511&#45;49f4&#45;ad3c&#45;4831adb20f30&#45;&gt;882efbcc&#45;247c&#45;4c54&#45;b567&#45;53d4a962ed97</title>
<path fill="none" stroke="black" d="M353.76,-99.87C377.65,-99.87 401.53,-99.87 425.42,-99.87"/>
<polygon fill="black" stroke="black" points="425.65,-103.37 435.65,-99.87 425.65,-96.37 425.65,-103.37"/>
</g>
<!-- 61312236&#45;af34&#45;4cf8&#45;8a04&#45;a54d97f8fbec -->
<g id="node6" class="node">
<title>61312236&#45;af34&#45;4cf8&#45;8a04&#45;a54d97f8fbec</title>
<polygon fill="white" stroke="black" points="366,-36 0,-36 0,0 366,0 366,-36"/>
<text text-anchor="middle" x="183" y="-14.3" font-family="Helvetica,sans-Serif" font-size="14.00">▶ Run GitHub Actions for `frontend/src/i18n/en.ts`</text>
</g>
<!-- 641294a0&#45;a511&#45;49f4&#45;ad3c&#45;4831adb20f30&#45;&gt;61312236&#45;af34&#45;4cf8&#45;8a04&#45;a54d97f8fbec -->
<g id="edge1" class="edge">
<title>641294a0&#45;a511&#45;49f4&#45;ad3c&#45;4831adb20f30&#45;&gt;61312236&#45;af34&#45;4cf8&#45;8a04&#45;a54d97f8fbec</title>
<path fill="none" stroke="black" stroke-dasharray="5,2" d="M214.87,-73.16C209.61,-64.22 203.71,-54.2 198.43,-45.22"/>
<polygon fill="black" stroke="black" points="201.29,-43.18 193.2,-36.34 195.26,-46.73 201.29,-43.18"/>
</g>
<!-- a3b2c525&#45;ee73&#45;4dec&#45;a85b&#45;57602d5eeb08 -->
<g id="node5" class="node">
<title>a3b2c525&#45;ee73&#45;4dec&#45;a85b&#45;57602d5eeb08</title>
<ellipse fill="white" stroke="black" cx="974" cy="-99.87" rx="156.04" ry="26.74"/>
<text text-anchor="middle" x="974" y="-103.67" font-family="Helvetica,sans-Serif" font-size="14.00">▶ Modify</text>
<text text-anchor="middle" x="974" y="-88.67" font-family="Helvetica,sans-Serif" font-size="14.00">frontend/src/layout/themes.ts</text>
</g>
<!-- 882efbcc&#45;247c&#45;4c54&#45;b567&#45;53d4a962ed97&#45;&gt;a3b2c525&#45;ee73&#45;4dec&#45;a85b&#45;57602d5eeb08 -->
<g id="edge4" class="edge">
<title>882efbcc&#45;247c&#45;4c54&#45;b567&#45;53d4a962ed97&#45;&gt;a3b2c525&#45;ee73&#45;4dec&#45;a85b&#45;57602d5eeb08</title>
<path fill="none" stroke="black" d="M740.29,-99.87C762.59,-99.87 784.89,-99.87 807.19,-99.87"/>
<polygon fill="black" stroke="black" points="807.43,-103.37 817.43,-99.87 807.43,-96.37 807.43,-103.37"/>
</g>
<!-- 050fe504&#45;d1c5&#45;4308&#45;9e63&#45;4189a22a02cd -->
<g id="node7" class="node">
<title>050fe504&#45;d1c5&#45;4308&#45;9e63&#45;4189a22a02cd</title>
<polygon fill="white" stroke="black" points="791.5,-36 384.5,-36 384.5,0 791.5,0 791.5,-36"/>
<text text-anchor="middle" x="588" y="-14.3" font-family="Helvetica,sans-Serif" font-size="14.00">▶ Run GitHub Actions for `frontend/src/layout/Login.tsx`</text>
</g>
<!-- 882efbcc&#45;247c&#45;4c54&#45;b567&#45;53d4a962ed97&#45;&gt;050fe504&#45;d1c5&#45;4308&#45;9e63&#45;4189a22a02cd -->
<g id="edge3" class="edge">
<title>882efbcc&#45;247c&#45;4c54&#45;b567&#45;53d4a962ed97&#45;&gt;050fe504&#45;d1c5&#45;4308&#45;9e63&#45;4189a22a02cd</title>
<path fill="none" stroke="black" stroke-dasharray="5,2" d="M588,-72.72C588,-64.27 588,-54.89 588,-46.36"/>
<polygon fill="black" stroke="black" points="591.5,-46.15 588,-36.15 584.5,-46.15 591.5,-46.15"/>
</g>
<!-- a3b2c525&#45;ee73&#45;4dec&#45;a85b&#45;57602d5eeb08&#45;&gt;end -->
<g id="edge7" class="edge">
<title>a3b2c525&#45;ee73&#45;4dec&#45;a85b&#45;57602d5eeb08&#45;&gt;end</title>
<path fill="none" stroke="black" d="M1130.37,-99.87C1150.09,-99.87 1166.95,-99.87 1177.25,-99.87"/>
<polygon fill="black" stroke="black" points="1177.36,-103.37 1187.36,-99.87 1177.36,-96.37 1177.36,-103.37"/>
<text text-anchor="middle" x="1158.89" y="-106.67" font-family="Helvetica,sans-Serif" font-size="14.00">Finish</text>
</g>
<!-- 135fcbea&#45;6dd0&#45;4cd5&#45;8944&#45;f769da9acdd4 -->
<g id="node8" class="node">
<title>135fcbea&#45;6dd0&#45;4cd5&#45;8944&#45;f769da9acdd4</title>
<polygon fill="white" stroke="black" points="1222.5,-36 809.5,-36 809.5,0 1222.5,0 1222.5,-36"/>
<text text-anchor="middle" x="1016" y="-14.3" font-family="Helvetica,sans-Serif" font-size="14.00">▶ Run GitHub Actions for `frontend/src/layout/themes.ts`</text>
</g>
<!-- a3b2c525&#45;ee73&#45;4dec&#45;a85b&#45;57602d5eeb08&#45;&gt;135fcbea&#45;6dd0&#45;4cd5&#45;8944&#45;f769da9acdd4 -->
<g id="edge5" class="edge">
<title>a3b2c525&#45;ee73&#45;4dec&#45;a85b&#45;57602d5eeb08&#45;&gt;135fcbea&#45;6dd0&#45;4cd5&#45;8944&#45;f769da9acdd4</title>
<path fill="none" stroke="black" stroke-dasharray="5,2" d="M987.75,-72.72C992.39,-63.9 997.57,-54.05 1002.21,-45.23"/>
<polygon fill="black" stroke="black" points="1005.43,-46.63 1006.98,-36.15 999.23,-43.37 1005.43,-46.63"/>
</g>
</g>
</svg>
